# xmcd CD database file
#
# Track frame offsets:
#	150
#	19504
#	40056
#	54562
#	74416
#	88753
#	104590
#	119099
#	131471
#	144599
#	159410
#	174973
#
# Disc length: 2587 seconds
#
# Revision: 0
# Processed by: cddbd v1.5.2PL0 Copyright (c) Steve Scherf et al.
# Submitted via: CDex 1.51
#
DISCID=a30a190c
DTITLE=Various Artist - Country Vol 2
DYEAR=1900
DGENRE=Country
TTITLE0=Tanya Tucker - Delta Dawn
TTITLE1=Nitty Gritty Dirt Band - Mr Bojangles
TTITLE2=Kathy Mattea - Heart Of The Country
TTITLE3=Bellamy Brothers - If I Said You Have A Beautiful Body
TTITLE4=Freddy Fender - Mexican Rose
TTITLE5=Johnny Rodriguez - North Of The Border
TTITLE6=George Jones - Who's Gonna Fill Their Shoes
TTITLE7=Patty Loveless - Lonely Days And Lonely Nights
TTITLE8=Dave And Sugar - The Door Is Always Open
TTITLE9=Eddy Raven - Who Do You Know In California
TTITLE10=Razzy Baliey - Midnight Hauler
TTITLE11=Bertie Higgins - Key Largo
EXTD=
EXTT0=
EXTT1=
EXTT2=
EXTT3=
EXTT4=
EXTT5=
EXTT6=
EXTT7=
EXTT8=
EXTT9=
EXTT10=
EXTT11=
PLAYORDER=
